M48
; DRILL file {KiCad 7.0.5-7.0.5~ubuntu22.04.1} date Sat 17 Jun 2023 08:47:42 AM MDT
; FORMAT={-:-/ absolute / inch / decimal}
; #@! TF.CreationDate,2023-06-17T08:47:42-06:00
; #@! TF.GenerationSoftware,Kicad,Pcbnew,7.0.5-7.0.5~ubuntu22.04.1
; #@! TF.FileFunction,Plated,1,2,PTH
FMAT,2
INCH
; #@! TA.AperFunction,Plated,PTH,ViaDrill
T1C0.0157
; #@! TA.AperFunction,Plated,PTH,ComponentDrill
T2C0.0374
; #@! TA.AperFunction,Plated,PTH,ComponentDrill
T3C0.0394
; #@! TA.AperFunction,Plated,PTH,ComponentDrill
T4C0.0906
%
G90
G05
T1
X6.0531Y-2.9724
X6.1122Y-2.9528
T2
X4.8091Y-2.3228
X4.8091Y-2.4213
X4.8091Y-2.5
X4.8091Y-2.5984
X6.4031Y-2.3228
X6.4031Y-2.4213
X6.4031Y-2.5
X6.4031Y-2.5984
T3
X4.9508Y-2.1654
X4.9508Y-2.3622
X4.9508Y-2.5591
X4.9508Y-2.7559
X5.1367Y-2.115
X5.1367Y-2.215
X5.1367Y-2.315
X5.1367Y-2.415
X5.1367Y-2.515
X5.1367Y-2.615
X5.1367Y-2.715
X5.1367Y-2.815
X5.279Y-2.3751
X5.279Y-2.4751
X5.279Y-2.5751
X5.279Y-2.6751
X5.279Y-2.7751
X5.279Y-2.8751
X5.279Y-2.9751
X5.9154Y-2.3751
X5.9154Y-2.4751
X5.9154Y-2.5751
X5.9154Y-2.6751
X5.9154Y-2.7751
X5.9154Y-2.8751
X5.9154Y-2.9751
X6.0367Y-2.115
X6.0367Y-2.215
X6.0367Y-2.315
X6.0367Y-2.415
X6.0367Y-2.515
X6.0367Y-2.615
X6.0367Y-2.715
X6.0367Y-2.815
X6.2205Y-2.1654
X6.2205Y-2.3622
X6.2205Y-2.5591
X6.2205Y-2.7559
T4
X6.5098Y-2.202
X6.5098Y-2.7193
T3
G00X4.7303Y-2.2362
M15
G01X4.6713Y-2.2362
M16
G05
G00X4.7303Y-2.685
M15
G01X4.6713Y-2.685
M16
G05
T0
M30
