%TF.GenerationSoftware,KiCad,Pcbnew,7.0.5-7.0.5~ubuntu22.04.1*%
%TF.CreationDate,2023-06-17T08:47:51-06:00*%
%TF.ProjectId,smart-usb,736d6172-742d-4757-9362-2e6b69636164,rev?*%
%TF.SameCoordinates,Original*%
%TF.FileFunction,Copper,L1,Top*%
%TF.FilePolarity,Positive*%
%FSLAX46Y46*%
G04 Gerber Fmt 4.6, Leading zero omitted, Abs format (unit mm)*
G04 Created by KiCad (PCBNEW 7.0.5-7.0.5~ubuntu22.04.1) date 2023-06-17 08:47:51*
%MOMM*%
%LPD*%
G01*
G04 APERTURE LIST*
%TA.AperFunction,ComponentPad*%
%ADD10R,1.700000X1.700000*%
%TD*%
%TA.AperFunction,ComponentPad*%
%ADD11O,2.748280X1.998980*%
%TD*%
%TA.AperFunction,SMDPad,CuDef*%
%ADD12O,1.016000X2.032000*%
%TD*%
%TA.AperFunction,SMDPad,CuDef*%
%ADD13C,1.143000*%
%TD*%
%TA.AperFunction,SMDPad,CuDef*%
%ADD14R,1.500000X0.400000*%
%TD*%
%TA.AperFunction,ComponentPad*%
%ADD15R,1.500000X1.600000*%
%TD*%
%TA.AperFunction,ComponentPad*%
%ADD16C,1.600000*%
%TD*%
%TA.AperFunction,ComponentPad*%
%ADD17C,3.000000*%
%TD*%
%TA.AperFunction,ComponentPad*%
%ADD18O,3.200000X1.700000*%
%TD*%
%TA.AperFunction,ComponentPad*%
%ADD19R,2.000000X2.000000*%
%TD*%
%TA.AperFunction,ComponentPad*%
%ADD20O,2.000000X1.600000*%
%TD*%
%TA.AperFunction,ViaPad*%
%ADD21C,0.800000*%
%TD*%
%TA.AperFunction,Conductor*%
%ADD22C,0.250000*%
%TD*%
%TA.AperFunction,Conductor*%
%ADD23C,1.000000*%
%TD*%
G04 APERTURE END LIST*
D10*
%TO.P,J10,1,Pin_1*%
%TO.N,GND*%
X158000000Y-55000000D03*
%TD*%
D11*
%TO.P,U1,1,PA02_A0_D0*%
%TO.N,Net-(U1-PA02_A0_D0)*%
X150250000Y-75567820D03*
%TO.P,U1,2,PA4_A1_D1*%
%TO.N,unconnected-(U1-PA4_A1_D1-Pad2)*%
X150250000Y-73027820D03*
%TO.P,U1,3,PA10_A2_D2*%
%TO.N,unconnected-(U1-PA10_A2_D2-Pad3)*%
X150250000Y-70487820D03*
%TO.P,U1,4,PA11_A3_D3*%
%TO.N,unconnected-(U1-PA11_A3_D3-Pad4)*%
X150250000Y-67947820D03*
%TO.P,U1,5,PA8_A4_D4_SDA*%
%TO.N,unconnected-(U1-PA8_A4_D4_SDA-Pad5)*%
X150250000Y-65407820D03*
%TO.P,U1,6,PA9_A5_D5_SCL*%
%TO.N,unconnected-(U1-PA9_A5_D5_SCL-Pad6)*%
X150250000Y-62867820D03*
%TO.P,U1,7,PB08_A6_D6_TX*%
%TO.N,unconnected-(U1-PB08_A6_D6_TX-Pad7)*%
X150250000Y-60327820D03*
%TO.P,U1,8,PB09_A7_D7_RX*%
%TO.N,unconnected-(U1-PB09_A7_D7_RX-Pad8)*%
X134085440Y-60327820D03*
%TO.P,U1,9,PA7_A8_D8_SCK*%
%TO.N,unconnected-(U1-PA7_A8_D8_SCK-Pad9)*%
X134085440Y-62867820D03*
%TO.P,U1,10,PA5_A9_D9_MISO*%
%TO.N,unconnected-(U1-PA5_A9_D9_MISO-Pad10)*%
X134085440Y-65407820D03*
%TO.P,U1,11,PA6_A10_D10_MOSI*%
%TO.N,unconnected-(U1-PA6_A10_D10_MOSI-Pad11)*%
X134085440Y-67947820D03*
%TO.P,U1,12,3V3*%
%TO.N,unconnected-(U1-3V3-Pad12)*%
X134085440Y-70487820D03*
%TO.P,U1,13,GND*%
%TO.N,GND*%
X134085440Y-73027820D03*
%TO.P,U1,14,5V*%
%TO.N,Net-(J1-VBUS)*%
X134085440Y-75567820D03*
D12*
%TO.P,U1,15*%
%TO.N,N/C*%
X143383120Y-59250000D03*
%TO.P,U1,16*%
X140833120Y-59250000D03*
D13*
%TO.P,U1,17*%
X143384317Y-76254187D03*
%TO.P,U1,18*%
X140844317Y-76254187D03*
%TO.P,U1,19*%
X143384317Y-73714187D03*
%TO.P,U1,20*%
X140844317Y-73714187D03*
%TD*%
D10*
%TO.P,J4,1,Pin_1*%
%TO.N,Net-(J1-D-)*%
X125750000Y-65000000D03*
%TD*%
%TO.P,J8,1,Pin_1*%
%TO.N,Net-(J1-D-)*%
X158000000Y-65000000D03*
%TD*%
D14*
%TO.P,U2,1,VOUT*%
%TO.N,Net-(J2-VBUS)*%
X159330000Y-75650000D03*
%TO.P,U2,2,GND*%
%TO.N,GND*%
X159330000Y-75000000D03*
%TO.P,U2,3,NC*%
%TO.N,unconnected-(U2-NC-Pad3)*%
X159330000Y-74350000D03*
%TO.P,U2,4,VIN*%
%TO.N,Net-(J1-VBUS)*%
X156670000Y-74350000D03*
%TO.P,U2,5,GND*%
%TO.N,GND*%
X156670000Y-75000000D03*
%TO.P,U2,6,EN*%
%TO.N,Net-(U1-PA02_A0_D0)*%
X156670000Y-75650000D03*
%TD*%
D15*
%TO.P,J2,1,VBUS*%
%TO.N,Net-(J2-VBUS)*%
X162640000Y-66000000D03*
D16*
%TO.P,J2,2,D-*%
%TO.N,Net-(J1-D-)*%
X162640000Y-63500000D03*
%TO.P,J2,3,D+*%
%TO.N,Net-(J1-D+)*%
X162640000Y-61500000D03*
%TO.P,J2,4,GND*%
%TO.N,GND*%
X162640000Y-59000000D03*
D17*
%TO.P,J2,5,Shield*%
%TO.N,Net-(J1-Shield)*%
X165350000Y-69070000D03*
X165350000Y-55930000D03*
%TD*%
D10*
%TO.P,J6,1,Pin_1*%
%TO.N,GND*%
X125750000Y-55000000D03*
%TD*%
%TO.P,J7,1,Pin_1*%
%TO.N,Net-(J2-VBUS)*%
X158000000Y-70000000D03*
%TD*%
%TO.P,J3,1,Pin_1*%
%TO.N,Net-(J1-VBUS)*%
X125750000Y-70000000D03*
%TD*%
D15*
%TO.P,J1,1,VBUS*%
%TO.N,Net-(J1-VBUS)*%
X122150000Y-66000000D03*
D16*
%TO.P,J1,2,D-*%
%TO.N,Net-(J1-D-)*%
X122150000Y-63500000D03*
%TO.P,J1,3,D+*%
%TO.N,Net-(J1-D+)*%
X122150000Y-61500000D03*
%TO.P,J1,4,GND*%
%TO.N,GND*%
X122150000Y-59000000D03*
D18*
%TO.P,J1,5,Shield*%
%TO.N,Net-(J1-Shield)*%
X119400000Y-68200000D03*
X119400000Y-56800000D03*
%TD*%
D10*
%TO.P,J9,1,Pin_1*%
%TO.N,Net-(J1-D+)*%
X158000000Y-60000000D03*
%TD*%
D19*
%TO.P,U3,1,~{RST}*%
%TO.N,unconnected-(U3-~{RST}-Pad1)*%
X130473120Y-53720000D03*
D20*
%TO.P,U3,2,A0*%
%TO.N,unconnected-(U3-A0-Pad2)*%
X130473120Y-56260000D03*
%TO.P,U3,3,D0*%
%TO.N,unconnected-(U3-D0-Pad3)*%
X130473120Y-58800000D03*
%TO.P,U3,4,SCK/D5*%
%TO.N,unconnected-(U3-SCK{slash}D5-Pad4)*%
X130473120Y-61340000D03*
%TO.P,U3,5,MISO/D6*%
%TO.N,unconnected-(U3-MISO{slash}D6-Pad5)*%
X130473120Y-63880000D03*
%TO.P,U3,6,MOSI/D7*%
%TO.N,unconnected-(U3-MOSI{slash}D7-Pad6)*%
X130473120Y-66420000D03*
%TO.P,U3,7,CS/D8*%
%TO.N,unconnected-(U3-CS{slash}D8-Pad7)*%
X130473120Y-68960000D03*
%TO.P,U3,8,3V3*%
%TO.N,unconnected-(U3-3V3-Pad8)*%
X130473120Y-71500000D03*
%TO.P,U3,9,5V*%
%TO.N,Net-(J1-VBUS)*%
X153333120Y-71500000D03*
%TO.P,U3,10,GND*%
%TO.N,GND*%
X153333120Y-68960000D03*
%TO.P,U3,11,D4*%
%TO.N,Net-(U1-PA02_A0_D0)*%
X153333120Y-66420000D03*
%TO.P,U3,12,D3*%
%TO.N,unconnected-(U3-D3-Pad12)*%
X153333120Y-63880000D03*
%TO.P,U3,13,SDA/D2*%
%TO.N,unconnected-(U3-SDA{slash}D2-Pad13)*%
X153333120Y-61340000D03*
%TO.P,U3,14,SCL/D1*%
%TO.N,unconnected-(U3-SCL{slash}D1-Pad14)*%
X153333120Y-58800000D03*
%TO.P,U3,15,RX*%
%TO.N,unconnected-(U3-RX-Pad15)*%
X153333120Y-56260000D03*
%TO.P,U3,16,TX*%
%TO.N,unconnected-(U3-TX-Pad16)*%
X153333120Y-53720000D03*
%TD*%
D10*
%TO.P,J5,1,Pin_1*%
%TO.N,Net-(J1-D+)*%
X125750000Y-60000000D03*
%TD*%
D21*
%TO.N,Net-(U1-PA02_A0_D0)*%
X153750000Y-75500000D03*
%TO.N,GND*%
X155250000Y-75000000D03*
%TD*%
D22*
%TO.N,Net-(U1-PA02_A0_D0)*%
X153750000Y-75500000D02*
X153975000Y-75725000D01*
X153975000Y-75725000D02*
X156595000Y-75725000D01*
X156595000Y-75725000D02*
X156670000Y-75650000D01*
%TO.N,GND*%
X156670000Y-75000000D02*
X155250000Y-75000000D01*
X159330000Y-75000000D02*
X156670000Y-75000000D01*
D23*
%TO.N,Net-(J1-VBUS)*%
X131317820Y-75567820D02*
X134085440Y-75567820D01*
X122150000Y-66000000D02*
X122150000Y-66400000D01*
X151070225Y-77525687D02*
X152324140Y-76271772D01*
X152324140Y-76271772D02*
X152324140Y-72508980D01*
X153333120Y-71500000D02*
X155933120Y-74100000D01*
X134085440Y-75567820D02*
X136043307Y-77525687D01*
X155933120Y-74100000D02*
X156670000Y-74100000D01*
X125750000Y-70000000D02*
X131317820Y-75567820D01*
X152324140Y-72508980D02*
X153333120Y-71500000D01*
X122150000Y-66400000D02*
X125750000Y-70000000D01*
X136043307Y-77525687D02*
X151070225Y-77525687D01*
D22*
%TO.N,Net-(J1-D-)*%
X158000000Y-64215890D02*
X158000000Y-65000000D01*
X153999110Y-60215000D02*
X158000000Y-64215890D01*
X125750000Y-65000000D02*
X125750000Y-63900000D01*
X125750000Y-63900000D02*
X129650000Y-60000000D01*
X150651130Y-57909000D02*
X152957130Y-60215000D01*
X162640000Y-63500000D02*
X159500000Y-63500000D01*
X159500000Y-63500000D02*
X158000000Y-65000000D01*
X152957130Y-60215000D02*
X153999110Y-60215000D01*
X129650000Y-60000000D02*
X132165498Y-60000000D01*
X134256498Y-57909000D02*
X150651130Y-57909000D01*
X122150000Y-63500000D02*
X124250000Y-63500000D01*
X124250000Y-63500000D02*
X125750000Y-65000000D01*
X132165498Y-60000000D02*
X134256498Y-57909000D01*
%TO.N,Net-(J1-D+)*%
X155459000Y-57459000D02*
X128291000Y-57459000D01*
X124250000Y-61500000D02*
X125750000Y-60000000D01*
X158000000Y-60000000D02*
X155459000Y-57459000D01*
X128291000Y-57459000D02*
X125750000Y-60000000D01*
X162640000Y-61500000D02*
X159500000Y-61500000D01*
X122150000Y-61500000D02*
X124250000Y-61500000D01*
X159500000Y-61500000D02*
X158000000Y-60000000D01*
D23*
%TO.N,Net-(J2-VBUS)*%
X158000000Y-70000000D02*
X158640000Y-70000000D01*
X160780000Y-72780000D02*
X160780000Y-75900000D01*
X160780000Y-75900000D02*
X159330000Y-75900000D01*
X158000000Y-70000000D02*
X160780000Y-72780000D01*
X158640000Y-70000000D02*
X162640000Y-66000000D01*
%TD*%
M02*
