%TF.GenerationSoftware,KiCad,Pcbnew,7.0.5-7.0.5~ubuntu22.04.1*%
%TF.CreationDate,2023-06-17T08:47:51-06:00*%
%TF.ProjectId,smart-usb,736d6172-742d-4757-9362-2e6b69636164,rev?*%
%TF.SameCoordinates,Original*%
%TF.FileFunction,Soldermask,Bot*%
%TF.FilePolarity,Negative*%
%FSLAX46Y46*%
G04 Gerber Fmt 4.6, Leading zero omitted, Abs format (unit mm)*
G04 Created by KiCad (PCBNEW 7.0.5-7.0.5~ubuntu22.04.1) date 2023-06-17 08:47:51*
%MOMM*%
%LPD*%
G01*
G04 APERTURE LIST*
%ADD10R,1.700000X1.700000*%
%ADD11O,2.748280X1.998980*%
%ADD12R,1.500000X1.600000*%
%ADD13C,1.600000*%
%ADD14C,3.000000*%
%ADD15C,3.200000*%
%ADD16C,1.100000*%
%ADD17O,3.200000X1.700000*%
%ADD18R,2.000000X2.000000*%
%ADD19O,2.000000X1.600000*%
G04 APERTURE END LIST*
D10*
%TO.C,J10*%
X158000000Y-55000000D03*
%TD*%
D11*
%TO.C,U1*%
X150250000Y-75567820D03*
X150250000Y-73027820D03*
X150250000Y-70487820D03*
X150250000Y-67947820D03*
X150250000Y-65407820D03*
X150250000Y-62867820D03*
X150250000Y-60327820D03*
X134085440Y-60327820D03*
X134085440Y-62867820D03*
X134085440Y-65407820D03*
X134085440Y-67947820D03*
X134085440Y-70487820D03*
X134085440Y-73027820D03*
X134085440Y-75567820D03*
%TD*%
D10*
%TO.C,J4*%
X125750000Y-65000000D03*
%TD*%
%TO.C,J8*%
X158000000Y-65000000D03*
%TD*%
D12*
%TO.C,J2*%
X162640000Y-66000000D03*
D13*
X162640000Y-63500000D03*
X162640000Y-61500000D03*
X162640000Y-59000000D03*
D14*
X165350000Y-69070000D03*
X165350000Y-55930000D03*
%TD*%
D10*
%TO.C,J6*%
X125750000Y-55000000D03*
%TD*%
D15*
%TO.C,H4*%
X170250000Y-76000000D03*
%TD*%
D10*
%TO.C,J7*%
X158000000Y-70000000D03*
%TD*%
%TO.C,J3*%
X125750000Y-70000000D03*
%TD*%
D15*
%TO.C,H1*%
X120250000Y-49000000D03*
%TD*%
D16*
%TO.C,J1*%
X119400000Y-64800000D03*
X119400000Y-60200000D03*
D12*
X122150000Y-66000000D03*
D13*
X122150000Y-63500000D03*
X122150000Y-61500000D03*
X122150000Y-59000000D03*
D17*
X119400000Y-68200000D03*
X119400000Y-56800000D03*
%TD*%
D15*
%TO.C,H3*%
X170250000Y-49000000D03*
%TD*%
D10*
%TO.C,J9*%
X158000000Y-60000000D03*
%TD*%
D15*
%TO.C,H2*%
X120250000Y-76000000D03*
%TD*%
D18*
%TO.C,U3*%
X130473120Y-53720000D03*
D19*
X130473120Y-56260000D03*
X130473120Y-58800000D03*
X130473120Y-61340000D03*
X130473120Y-63880000D03*
X130473120Y-66420000D03*
X130473120Y-68960000D03*
X130473120Y-71500000D03*
X153333120Y-71500000D03*
X153333120Y-68960000D03*
X153333120Y-66420000D03*
X153333120Y-63880000D03*
X153333120Y-61340000D03*
X153333120Y-58800000D03*
X153333120Y-56260000D03*
X153333120Y-53720000D03*
%TD*%
D10*
%TO.C,J5*%
X125750000Y-60000000D03*
%TD*%
M02*
